<?xml version="1.0" encoding="utf-8"?>
<!-- Generator: Adobe Illustrator 16.0.0, SVG Export Plug-In . SVG Version: 6.00 Build 0)  -->
<!DOCTYPE svg PUBLIC "-//W3C//DTD SVG 1.1//EN" "http://www.w3.org/Graphics/SVG/1.1/DTD/svg11.dtd">
<svg version="1.1" id="Layer_1" xmlns="http://www.w3.org/2000/svg" xmlns:xlink="http://www.w3.org/1999/xlink" x="0px" y="0px"
	 width="884.95px" height="1000px" viewBox="0 0 884.95 1000" enable-background="new 0 0 884.95 1000" xml:space="preserve">
<g>
	<path fill="#FF004F" d="M655.853,360.979c64.565,46.13,143.67,73.274,229.097,73.274V269.94
		c-16.168,0.007-32.294-1.68-48.111-5.033v129.339c-85.422,0-164.513-27.144-229.098-73.274v335.311
		c0,167.738-136.048,303.711-303.864,303.711c-62.614,0-120.814-18.923-169.163-51.368c55.18,56.39,132.13,91.374,217.262,91.374
		c167.828,0,303.883-135.969,303.883-303.718V360.979H655.853z M715.204,195.209c-32.997-36.029-54.659-82.595-59.351-134.076V40
		H610.26C621.735,105.428,660.879,161.327,715.204,195.209L715.204,195.209z M240.855,779.91
		c-18.434-24.158-28.398-53.716-28.353-84.104c0-76.72,62.23-138.92,139.002-138.92c14.306-0.012,28.528,2.187,42.165,6.508V395.41
		c-15.935-2.183-32.015-3.108-48.095-2.768v130.751c-13.644-4.324-27.871-6.519-42.183-6.511
		c-76.773,0-138.998,62.201-138.998,138.929C164.396,710.06,195.5,757.031,240.855,779.91z"/>
	<path d="M607.741,320.973c64.585,46.13,143.676,73.274,229.098,73.274V264.908c-47.682-10.147-89.895-35.056-121.635-69.699
		C660.879,161.327,621.735,105.427,610.26,40H490.5v656.278c-0.271,76.509-62.394,138.455-139.001,138.455
		c-45.145,0-85.251-21.505-110.649-54.822c-45.358-22.879-76.46-69.851-76.46-124.102c0-76.725,62.224-138.926,138.997-138.926
		c14.708,0,28.885,2.291,42.183,6.508V392.642c-164.868,3.404-297.463,138.046-297.463,303.64
		c0,82.66,33.021,157.598,86.607,212.349C183.062,941.078,241.262,960,303.876,960c167.816,0,303.864-135.979,303.864-303.711
		V320.973L607.741,320.973z"/>
	<path fill="#00F2EA" d="M836.838,264.908v-34.974c-43,0.065-85.151-11.97-121.635-34.73
		C747.498,230.542,790.021,254.911,836.838,264.908z M610.26,40c-1.096-6.252-1.938-12.546-2.52-18.867V0H442.384v656.283
		c-0.265,76.5-62.384,138.448-138.998,138.448c-22.496,0-43.728-5.334-62.537-14.821c25.398,33.317,65.504,54.822,110.649,54.822
		c76.602,0,138.731-61.946,139.001-138.455V40H610.26z M345.575,392.643V355.41c-13.817-1.889-27.747-2.833-41.692-2.826
		C136.047,352.583,0,488.56,0,656.283C0,761.44,53.469,854.111,134.72,908.626c-53.587-54.748-86.607-129.687-86.607-212.349
		C48.113,530.691,180.702,396.047,345.575,392.643z"/>
</g>
</svg>
